<?xml version="1.0" encoding="utf-8"?>
<svg xmlns="http://www.w3.org/2000/svg" style="margin: auto; background: none; display: block; shape-rendering: auto; animation-play-state: running; animation-delay: 0s;" width="286" height="133" preserveAspectRatio="xMidYMid">
<style type="text/css" style="animation-play-state: running; animation-delay: 0s;">
  text {
    text-anchor: middle; font-size: 94px; opacity: 0;
  }
</style>
<g style="transform-origin: 143px 66.5px; transform: scale(1.11905); animation-play-state: running; animation-delay: 0s;">
<g transform="translate(143,66.5)" style="animation-play-state: running; animation-delay: 0s;">
  <g transform="translate(0,0)" style="animation-play-state: running; animation-delay: 0s;"><g class="path" style="transform: scale(0.91); transform-origin: -92.1px -7.40192px; animation: 1.19048s linear -0.6875s infinite normal forwards running breath-7fc76d87-5499-444c-b0e1-2d09bf6105d4;"><path d="M25.87-0.08L25.87-0.08L21.08-0.17L21.08-0.17Q20.08-0.17 19.07-0.17L19.07-0.17L3.78 0.59L3.78 0.59Q2.52 0.59 2.52-0.25L2.52-0.25L2.52-0.25Q2.52-0.50 2.77-1.43L2.77-1.43L2.77-1.43Q3.61-3.36 3.99-13.69L3.99-13.69L3.99-13.69Q4.37-24.02 4.37-32.55L4.37-32.55L4.37-32.55Q4.37-41.08 4.03-46.37L4.03-46.37L4.03-46.37Q3.53-54.35 2.35-55.94L2.35-55.94L2.35-55.94Q1.43-57.12 1.43-57.46L1.43-57.46L1.43-57.46Q1.43-58.80 5.96-59.81L5.96-59.81L5.96-59.81Q10.50-60.82 12.47-60.82L12.47-60.82L12.47-60.82Q14.45-60.82 14.95-60.61L14.95-60.61L14.95-60.61Q15.46-60.40 15.46-59.72L15.46-59.72L15.46-59.72Q15.46-59.05 15.12-55.44L15.12-55.44L15.12-55.44Q14.28-44.77 14.28-30.62L14.28-30.62L14.28-30.62Q14.28-16.46 14.95-7.98L14.95-7.98L14.95-7.98Q14.95-7.06 16.55-6.38L16.55-6.38L16.55-6.38Q18.14-5.71 20.50-5.71L20.50-5.71L20.50-5.71Q28.73-5.71 28.73-18.40L28.73-18.40L28.73-18.40Q28.73-21.92 28.35-22.76L28.35-22.76L28.35-22.76Q27.97-23.60 27.97-23.86L27.97-23.86L27.97-23.86Q27.97-24.70 29.15-24.70L29.15-24.70L29.15-24.70Q30.07-24.70 31.63-23.77L31.63-23.77L31.63-23.77Q33.18-22.85 34.19-21.46L34.19-21.46L34.19-21.46Q35.20-20.08 36.04-17.09L36.04-17.09L36.04-17.09Q36.88-14.11 36.88-10.08L36.88-10.08L36.88-10.08Q36.88-0.08 34.44-0.08L34.44-0.08L34.44-0.08Q30.16-0.08 25.87-0.08" fill="#ee393d" stroke="none" stroke-width="none" transform="translate(-111.2550048828125,22.713078536987304)" style="fill: rgb(238, 57, 61); animation-play-state: running; animation-delay: 0s;"></path></g><g class="path" style="transform: scale(0.91); transform-origin: -55.945px 4.56808px; animation: 1.19048s linear -0.589286s infinite normal forwards running breath-7fc76d87-5499-444c-b0e1-2d09bf6105d4;"><path d="M48.22-31.67L48.22-31.67L48.22-31.67Q46.03-31.58 45.07-31.54L45.07-31.54L45.07-31.54Q44.10-31.50 44.10-32.00L44.10-32.00L44.10-32.00Q44.10-32.51 44.60-33.01L44.60-33.01L44.60-33.01Q49.98-37.97 62.75-37.97L62.75-37.97L62.75-37.97Q67.12-37.97 69.64-37.21L69.64-37.21L70.48-36.96L70.48-36.96Q71.48-36.54 71.48-36.04L71.48-36.04L71.48-36.04Q71.48-35.62 70.90-35.36L70.90-35.36L70.90-35.36Q68.63-34.69 66.53-33.22L66.53-33.22L66.53-33.22Q64.43-31.75 64.43-31.16L64.43-31.16L64.93-30.58L64.93-30.58Q67.62-29.06 69.09-25.79L69.09-25.79L69.09-25.79Q70.56-22.51 70.73-19.99L70.73-19.99L70.90-17.39L70.90-17.39Q70.90-9.07 66.28-3.70L66.28-3.70L66.28-3.70Q61.66 1.68 53.68 1.68L53.68 1.68L53.68 1.68Q49.64 1.68 46.70 0.25L46.70 0.25L46.70 0.25Q43.76-1.18 42.38-2.98L42.38-2.98L42.38-2.98Q40.99-4.79 40.15-7.06L40.15-7.06L40.15-7.06Q39.14-10.16 39.14-13.48L39.14-13.48L39.14-13.48Q39.14-16.80 40.28-20.16L40.28-20.16L40.28-20.16Q41.41-23.52 42.88-25.12L42.88-25.12L42.88-25.12Q44.35-26.71 46.20-27.72L46.20-27.72L46.20-27.72Q48.55-28.98 49.98-28.98L49.98-28.98L49.98-28.98Q51.41-28.98 51.41-28.39L51.41-28.39L50.90-27.55L50.90-27.55Q49.06-25.37 48.26-21.84L48.26-21.84L48.26-21.84Q47.46-18.31 47.46-15.58L47.46-15.58L47.46-15.58Q47.46-12.85 48.13-10.16L48.13-10.16L48.13-10.16Q48.80-7.48 49.64-6.17L49.64-6.17L49.64-6.17Q50.48-4.87 51.58-4.20L51.58-4.20L51.58-4.20Q53.17-3.19 54.94-3.19L54.94-3.19L54.94-3.19Q56.70-3.19 58.38-4.58L58.38-4.58L58.38-4.58Q60.06-5.96 60.82-8.23L60.82-8.23L60.82-8.23Q62.33-12.43 62.33-16.88L62.33-16.88L62.33-16.88Q62.33-23.94 58.76-27.80L58.76-27.80L58.76-27.80Q55.19-31.67 48.22-31.67" fill="#ee393d" stroke="none" stroke-width="none" transform="translate(-111.2550048828125,22.713078536987304)" style="fill: rgb(236, 160, 90); animation-play-state: running; animation-delay: 0s;"></path></g><g class="path" style="transform: scale(0.91); transform-origin: -21.46px 4.27308px; animation: 1.19048s linear -0.491071s infinite normal forwards running breath-7fc76d87-5499-444c-b0e1-2d09bf6105d4;"><path d="M103.32-25.20L103.32-25.20L103.15-14.45L103.15-14.45Q103.15-3.28 105.59-1.01L105.59-1.01L105.59-1.01Q105.92-0.67 105.92-0.25L105.92-0.25L105.92-0.25Q105.92 1.01 100.51 1.01L100.51 1.01L100.51 1.01Q95.09 1.01 94.75-2.18L94.75-2.18L94.75-2.18Q94.67-2.94 94.67-5.29L94.67-5.29L95.00-18.73L95.00-18.73Q95.00-19.32 94.33-19.32L94.33-19.32L94.33-19.32Q90.30-19.32 86.77-17.05L86.77-17.05L86.77-17.05Q83.24-14.78 83.24-11.26L83.24-11.26L83.24-11.26Q83.24-9.41 84.25-8.15L84.25-8.15L84.25-8.15Q85.26-6.89 86.73-6.89L86.73-6.89L86.73-6.89Q88.20-6.89 89.17-7.48L89.17-7.48L89.17-7.48Q90.13-8.06 90.30-8.15L90.30-8.15L90.30-8.15Q91.73-7.98 91.73-5.17L91.73-5.17L91.73-5.17Q91.73-2.35 89.12-0.63L89.12-0.63L89.12-0.63Q86.52 1.09 83.66 1.09L83.66 1.09L83.66 1.09Q80.81 1.09 78.75 0.08L78.75 0.08L78.75 0.08Q76.69-0.92 75.77-2.18L75.77-2.18L75.77-2.18Q74.84-3.44 74.26-5.04L74.26-5.04L74.26-5.04Q73.67-6.97 73.67-8.40L73.67-8.40L73.67-8.40Q73.67-14.28 77.36-17.81L77.36-17.81L77.36-17.81Q81.06-21.34 86.86-22.85L86.86-22.85L86.86-22.85Q94.50-24.36 94.84-25.62L94.84-25.62L94.84-25.62Q95.09-26.54 95.09-28.73L95.09-28.73L95.09-28.73Q95.09-33.18 90.55-33.18L90.55-33.18L90.55-33.18Q88.62-33.18 87.11-31.96L87.11-31.96L87.11-31.96Q85.60-30.74 85.60-28.90L85.60-28.90L86.10-26.88L86.10-26.88Q85.93-25.45 83.08-25.20L83.08-25.20L82.15-25.12L82.15-25.12Q79.63-25.12 78.16-26.38L78.16-26.38L78.16-26.38Q76.69-27.64 76.69-29.74L76.69-29.74L76.69-29.74Q76.69-31.08 77.57-32.72L77.57-32.72L77.57-32.72Q78.46-34.36 79.80-35.36L79.80-35.36L79.80-35.36Q81.14-36.37 83.96-37.17L83.96-37.17L83.96-37.17Q86.77-37.97 89.38-37.97L89.38-37.97L89.38-37.97Q91.98-37.97 93.41-37.80L93.41-37.80L93.41-37.80Q94.84-37.63 97.31-37.00L97.31-37.00L97.31-37.00Q99.79-36.37 101.43-34.61L101.43-34.61L101.43-34.61Q103.07-32.84 103.19-30.87L103.19-30.87L103.19-30.87Q103.32-28.90 103.32-25.20" fill="#ee393d" stroke="none" stroke-width="none" transform="translate(-111.2550048828125,22.713078536987304)" style="fill: rgb(252, 231, 84); animation-play-state: running; animation-delay: 0s;"></path></g><g class="path" style="transform: scale(0.91); transform-origin: 12.39px -5.97192px; animation: 1.19048s linear -0.392857s infinite normal forwards running breath-7fc76d87-5499-444c-b0e1-2d09bf6105d4;"><path d="M125.24-37.72L125.24-37.72L125.24-37.72Q126.76-37.72 127.97-37.34L127.97-37.34L127.97-37.34Q129.19-36.96 129.28-36.96L129.28-36.96L129.78-37.38L129.44-46.54L129.44-46.54Q129.28-48.89 128.44-50.57L128.44-50.57L128.44-50.57Q127.60-52.25 126.92-52.75L126.92-52.75L126.17-53.17L126.17-53.17Q125.66-53.51 125.66-53.93L125.66-53.93L125.66-53.93Q125.66-55.19 129.57-56.87L129.57-56.87L129.57-56.87Q133.48-58.55 135.66-58.55L135.66-58.55L135.66-58.55Q137.84-58.55 138.01-57.62L138.01-57.62L138.01-57.62Q138.43-54.77 138.43-46.75L138.43-46.75L138.43-46.75Q138.43-38.72 138.05-31.00L138.05-31.00L138.05-31.00Q137.68-23.27 137.68-13.48L137.68-13.48L137.68-13.48Q137.68-3.70 138.94-1.18L138.94-1.18L138.94-1.18Q139.27-0.59 139.27-0.08L139.27-0.08L139.27-0.08Q139.27 1.18 135.66 1.18L135.66 1.18L135.66 1.18Q128.77 1.18 128.77-2.10L128.77-2.10L128.77-2.10Q128.60-3.44 128.60-6.26L128.60-6.26L128.60-6.26Q128.60-9.07 129.15-16.76L129.15-16.76L129.15-16.76Q129.70-24.44 129.70-28.60L129.70-28.60L129.70-28.60Q129.70-32.76 125.54-32.76L125.54-32.76L125.54-32.76Q121.38-32.76 119.20-27.89L119.20-27.89L119.20-27.89Q117.01-23.02 117.01-18.14L117.01-18.14L117.01-18.14Q117.01-7.81 122.22-7.81L122.22-7.81L122.22-7.81Q122.98-7.81 123.69-8.11L123.69-8.11L123.69-8.11Q124.40-8.40 124.57-8.40L124.57-8.40L124.57-8.40Q125.24-8.40 125.62-7.56L125.62-7.56L125.62-7.56Q126-6.72 126-5.88L126-5.88L126-5.88Q126-3.02 123.73-1.05L123.73-1.05L123.73-1.05Q121.46 0.92 118.19 0.92L118.19 0.92L118.19 0.92Q113.15 0.92 110.59-3.49L110.59-3.49L110.59-3.49Q108.02-7.90 108.02-14.45L108.02-14.45L108.02-14.45Q108.02-22.76 111.97-29.90L111.97-29.90L111.97-29.90Q113.99-33.43 117.43-35.57L117.43-35.57L117.43-35.57Q120.88-37.72 125.24-37.72" fill="#ee393d" stroke="none" stroke-width="none" transform="translate(-111.2550048828125,22.713078536987304)" style="fill: rgb(142, 241, 111); animation-play-state: running; animation-delay: 0s;"></path></g><g class="path" style="transform: scale(0.91); transform-origin: 38.94px -25.7119px; animation: 1.19048s linear -0.294643s infinite normal forwards running breath-7fc76d87-5499-444c-b0e1-2d09bf6105d4;"><path d="M151.70-44.94L151.70-44.94L149.69-45.02L149.69-45.02Q147.42-45.02 146.75-43.93L146.75-43.93L146.75-43.93Q146.58-43.68 146.33-43.68L146.33-43.68L146.33-43.68Q145.24-43.68 145.24-47.42L145.24-47.42L145.24-47.42Q145.24-51.16 146.37-52.16L146.37-52.16L146.37-52.16Q147.50-53.17 150.32-53.17L150.32-53.17L150.32-53.17Q153.13-53.17 154.14-52.21L154.14-52.21L154.14-52.21Q155.15-51.24 155.15-48.97L155.15-48.97L155.15-48.97Q155.15-46.70 154.39-45.82L154.39-45.82L154.39-45.82Q153.64-44.94 151.70-44.94" fill="#ee393d" stroke="none" stroke-width="none" transform="translate(-111.2550048828125,22.713078536987304)" style="fill: rgb(61, 139, 223); animation-play-state: running; animation-delay: 0s;"></path></g><g class="path" style="transform: scale(0.91); transform-origin: 37.845px 4.69808px; animation: 1.19048s linear -0.196429s infinite normal forwards running breath-7fc76d87-5499-444c-b0e1-2d09bf6105d4;"><path d="M144.98-2.52L144.98-2.52L145.91-22.09L145.91-22.09Q145.91-29.06 144.31-31.58L144.31-31.58L144.31-31.58Q143.81-32.42 143.14-32.84L143.14-32.84L143.14-32.84Q142.63-33.01 142.63-33.52L142.63-33.52L142.63-33.52Q142.63-35.03 146.92-36.46L146.92-36.46L146.92-36.46Q151.20-37.88 153.17-37.88L153.17-37.88L153.17-37.88Q155.15-37.88 155.23-36.88L155.23-36.88L155.23-36.88Q155.23-35.20 154.77-27.34L154.77-27.34L154.77-27.34Q154.31-19.49 154.31-10.84L154.31-10.84L154.31-10.84Q154.31-2.18 155.32-0.08L155.32-0.08L155.32-0.08Q155.57 0.34 155.57 0.76L155.57 0.76L155.57 0.76Q155.57 1.85 152.38 1.85L152.38 1.85L152.38 1.85Q149.18 1.85 145.82 0.17L145.82 0.17L145.82 0.17Q144.98-0.25 144.98-2.52" fill="#ee393d" stroke="none" stroke-width="none" transform="translate(-111.2550048828125,22.713078536987304)" style="fill: rgb(238, 57, 61); animation-play-state: running; animation-delay: 0s;"></path></g><g class="path" style="transform: scale(0.91); transform-origin: 64.81px 4.36308px; animation: 1.19048s linear -0.0982143s infinite normal forwards running breath-7fc76d87-5499-444c-b0e1-2d09bf6105d4;"><path d="M160.69 0.59L160.69 0.59L160.69 0.59Q162.20-8.48 162.20-21.17L162.20-21.17L162.20-21.17Q162.20-33.85 161.45-37.63L161.45-37.63L161.45-37.63Q161.45-38.72 163.97-38.72L163.97-38.72L163.97-38.72Q167.83-38.72 169.09-35.78L169.09-35.78L169.09-35.78Q169.18-35.53 169.51-35.53L169.51-35.53L169.51-35.53Q169.85-35.53 170.02-35.70L170.02-35.70L170.02-35.70Q172.62-38.39 178.08-38.39L178.08-38.39L178.08-38.39Q183.54-38.39 186.73-35.62L186.73-35.62L186.73-35.62Q189.92-32.84 189.92-27.55L189.92-27.55L189.92-27.55Q189.92-24.36 189.38-18.48L189.38-18.48L189.38-18.48Q188.83-12.60 188.83-9.74L188.83-9.74L188.83-9.74Q188.83-2.94 191.10 0.08L191.10 0.08L191.10 0.08Q191.44 0.50 191.44 0.92L191.44 0.92L191.44 0.92Q191.44 2.02 189.08 2.02L189.08 2.02L189.08 2.02Q178.67 2.02 178.67-7.22L178.67-7.22L178.67-7.22Q178.67-10.75 180.26-17.05L180.26-17.05L180.26-17.05Q181.86-23.35 181.86-26.63L181.86-26.63L181.86-26.63Q181.86-33.35 176.32-33.35L176.32-33.35L176.32-33.35Q173.63-33.35 172.24-31.75L172.24-31.75L172.24-31.75Q170.86-30.16 170.69-28.10L170.69-28.10L170.69-28.10Q170.52-26.04 170.52-20.33L170.52-20.33L170.52-20.33Q170.52-11.59 171.11-5.12L171.11-5.12L171.28-3.28L171.28-3.28Q171.28-0.92 168.21 0.38L168.21 0.38L168.21 0.38Q165.14 1.68 162.92 1.68L162.92 1.68L162.92 1.68Q160.69 1.68 160.69 0.59" fill="#ee393d" stroke="none" stroke-width="none" transform="translate(-111.2550048828125,22.713078536987304)" style="fill: rgb(236, 160, 90); animation-play-state: running; animation-delay: 0s;"></path></g><g class="path" style="transform: scale(0.91); transform-origin: 97.275px 16.4131px; animation: 1.19048s linear 0s infinite normal forwards running breath-7fc76d87-5499-444c-b0e1-2d09bf6105d4;"><path d="M199.75-33.89L199.75-33.89L199.75-33.89Q201.60-35.78 204.62-37.09L204.62-37.09L204.62-37.09Q207.65-38.39 210.42-38.39L210.42-38.39L210.42-38.39Q213.19-38.39 216.05-37.13L216.05-37.13L216.05-37.13Q216.38-37.13 216.55-37.30L216.55-37.30L216.55-37.30Q218.74-39.48 222.94-39.48L222.94-39.48L222.94-39.48Q223.94-39.48 223.94-38.56L223.94-38.56L223.94-38.56Q223.94-38.47 223.78-37.80L223.78-37.80L223.78-37.80Q223.61-37.13 223.36-35.83L223.36-35.83L223.36-35.83Q223.10-34.52 222.94-32.68L222.94-32.68L222.94-32.68Q222.35-27.89 222.31-22.09L222.31-22.09L222.31-22.09Q222.26-16.30 222.26-10.50L222.26-10.50L222.52 7.14L222.52 7.14Q222.52 15.62 218.15 21.25L218.15 21.25L218.15 21.25Q216.38 23.52 212.81 25.20L212.81 25.20L212.81 25.20Q209.24 26.88 204.46 26.88L204.46 26.88L204.46 26.88Q203.36 26.21 203.36 25.54L203.36 25.54L203.36 25.54Q203.36 24.86 204.29 24.44L204.29 24.44L204.29 24.44Q209.58 22.01 211.85 12.89L211.85 12.89L211.85 12.89Q214.12 3.78 214.12-14.78L214.12-14.78L213.95-26.54L213.70-32.26L213.70-32.26Q213.70-33.01 211.34-33.35L211.34-33.35L211.34-33.35Q208.32-33.35 206.26-31.37L206.26-31.37L206.26-31.37Q204.20-29.40 203.45-26.21L203.45-26.21L203.45-26.21Q202.10-21.08 202.10-17.35L202.10-17.35L202.10-17.35Q202.10-13.61 203.32-10.75L203.32-10.75L203.32-10.75Q204.54-7.90 207.56-7.90L207.56-7.90L207.56-7.90Q208.40-7.90 209.12-8.23L209.12-8.23L209.12-8.23Q209.83-8.57 210.08-8.57L210.08-8.57L210.08-8.57Q210.92-8.57 210.92-6.89L210.92-6.89L210.92-6.89Q210.92-5.21 210.67-4.16L210.67-4.16L210.67-4.16Q210.42-3.11 209.66-1.85L209.66-1.85L209.66-1.85Q207.98 0.92 203.11 0.92L203.11 0.92L203.11 0.92Q198.24 0.92 196.14-2.60L196.14-2.60L196.14-2.60Q193.96-6.22 193.62-9.07L193.62-9.07L193.62-9.07Q193.12-13.36 193.12-14.70L193.12-14.70L193.12-14.70Q193.12-16.04 193.16-16.84L193.16-16.84L193.16-16.84Q193.20-17.64 193.58-20.03L193.58-20.03L193.58-20.03Q193.96-22.43 194.59-24.57L194.59-24.57L194.59-24.57Q195.22-26.71 196.56-29.36L196.56-29.36L196.56-29.36Q197.90-32.00 199.75-33.89" fill="#ee393d" stroke="none" stroke-width="none" transform="translate(-111.2550048828125,22.713078536987304)" style="fill: rgb(252, 231, 84); animation-play-state: running; animation-delay: 0s;"></path></g></g>
</g>
</g>
<style id="breath-7fc76d87-5499-444c-b0e1-2d09bf6105d4" data-anikit="">@keyframes breath-7fc76d87-5499-444c-b0e1-2d09bf6105d4
{
  0% {
    animation-timing-function: cubic-bezier(0.9647,0.2413,-0.0705,0.7911);
    transform: scale(0.9099999999999999);
  }
  51% {
    animation-timing-function: cubic-bezier(0.9226,0.2631,-0.0308,0.7628);
    transform: scale(1.02994);
  }
  100% {
    transform: scale(0.9099999999999999);
  }
}</style></svg>