<?xml version="1.0" encoding="utf-8"?>
<svg xmlns="http://www.w3.org/2000/svg" style="margin: auto; background: none; display: block; shape-rendering: auto;" width="280" height="50" preserveAspectRatio="xMidYMid">
<style type="text/css">
  text {
    text-anchor: middle; font-size: 38px; opacity: 0;
  }
</style>
<g style="transform-origin: 140px 25px; transform: scale(0.475);">
<g transform="translate(140,25)">
  <g transform="translate(0,0)"><g class="path" style="transform: matrix(0.01, 0, 0, 0.01, 0, 0); transform-origin: -255.84px -6.07469px; animation: 1s linear 0s 1 normal forwards running bounce-in-62be9955-8e69-4d99-acc1-3c3c9b03376f;"><path d="M27.84-44.32L27.84-44.32L28.16-46.80L28.16-46.80Q28.16-50.48 25.28-51.52L25.28-51.52L25.28-51.52Q23.04-52.24 21.84-52.24L21.84-52.24L21.76-52.24L21.76-52.24Q19.36-52.24 17.60-51.48L17.60-51.48L17.60-51.48Q15.84-50.72 15.04-49.60L15.04-49.60L15.04-49.60Q13.36-47.28 13.12-44.72L13.12-44.72L13.12-44.72Q13.12-41.68 15.84-39.48L15.84-39.48L15.84-39.48Q18.56-37.28 22.44-35.64L22.44-35.64L22.44-35.64Q26.32-34 30.20-32.08L30.20-32.08L30.20-32.08Q34.08-30.16 36.80-26.56L36.80-26.56L36.80-26.56Q39.52-22.96 39.52-17.92L39.52-17.92L39.52-17.92Q39.52-8.08 33.32-3.20L33.32-3.20L33.32-3.20Q27.12 1.68 19.24 1.68L19.24 1.68L19.24 1.68Q11.36 1.68 6.20-1.88L6.20-1.88L6.20-1.88Q1.04-5.44 1.04-11.44L1.04-11.44L1.04-11.52L1.04-11.52Q1.04-14.48 1.96-16.68L1.96-16.68L1.96-16.68Q2.88-18.88 4.16-19.92L4.16-19.92L4.16-19.92Q6.80-22.08 8.96-22.24L8.96-22.24L9.92-22.32L9.92-22.32Q12.16-22.32 14-21.24L14-21.24L14-21.24Q15.84-20.16 15.84-18.24L15.84-18.24L15.84-18.24Q15.84-17.28 14.80-16.64L14.80-16.64L14.80-16.64Q13.76-16 13-14.72L13-14.72L13-14.72Q12.24-13.44 12.16-12.56L12.16-12.56L12-11.68L12-11.68Q12-6.80 16.48-5.20L16.48-5.20L16.48-5.20Q18.08-4.64 19.04-4.64L19.04-4.64L19.04-4.64Q23.44-4.64 26.12-7.28L26.12-7.28L26.12-7.28Q28.80-9.92 28.80-14L28.80-14L28.80-14Q28.80-18.88 24.64-21.92L24.64-21.92L24.64-21.92Q21.52-24.16 17.88-25.68L17.88-25.68L17.88-25.68Q14.24-27.20 12.96-27.84L12.96-27.84L12.96-27.84Q11.68-28.48 10.24-29.36L10.24-29.36L10.24-29.36Q8.80-30.24 7.04-31.84L7.04-31.84L7.04-31.84Q3.20-35.20 3.20-40.92L3.20-40.92L3.20-40.92Q3.20-46.64 6.32-50.56L6.32-50.56L6.32-50.56Q11.92-57.68 23.12-57.68L23.12-57.68L23.12-57.68Q29.04-57.68 33.12-55.40L33.12-55.40L33.12-55.40Q37.20-53.12 37.20-49.12L37.20-49.12L37.20-49.12Q37.20-46.24 35.56-44.32L35.56-44.32L35.56-44.32Q33.92-42.40 31.36-42.40L31.36-42.40L31.36-42.40Q30.16-42.40 29-42.88L29-42.88L29-42.88Q27.84-43.36 27.84-44.32" fill="#51cacc" stroke="none" stroke-width="none" transform="translate(-276.1200256347656,21.925308706110176)" style="fill: rgb(81, 202, 204);"></path></g><g class="path" style="transform: matrix(0.01, 0, 0, 0.01, 0, 0); transform-origin: -218.76px 4.36531px; animation: 1s linear 0.0377273s 1 normal forwards running bounce-in-62be9955-8e69-4d99-acc1-3c3c9b03376f;"><path d="M71.52-35.60L71.52-35.60L71.52-35.60Q70.08-26.96 70.08-13.60L70.08-13.60L70.08-13.60Q70.08-3.76 70.88-0.64L70.88-0.64L71.20 0.40L71.20 0.40Q71.20 1.44 69.44 1.44L69.44 1.44L69.44 1.44Q63.28 1.44 62.40-2L62.40-2L62.40-2Q62.32-2.40 62.04-2.40L62.04-2.40L62.04-2.40Q61.76-2.40 61.52-2.08L61.52-2.08L61.52-2.08Q59.04 1.20 53.84 1.20L53.84 1.20L53.84 1.20Q50.96 1.20 47.84-0.24L47.84-0.24L47.84-0.24Q45.92-1.12 44.72-3.32L44.72-3.32L44.72-3.32Q43.52-5.52 43.52-8.72L43.52-8.72L44.72-26.24L44.72-26.24Q44.72-31.76 43.60-34.08L43.60-34.08L43.60-34.08Q43.20-34.96 43.20-35.20L43.20-35.20L43.20-35.20Q43.20-35.68 43.60-35.84L43.60-35.84L43.60-35.84Q44.88-36.24 46.88-36.24L46.88-36.24L46.88-36.24Q54.64-36.24 54.64-29.84L54.64-29.84L54.64-29.84Q54.64-27.84 53.00-20.72L53.00-20.72L53.00-20.72Q51.36-13.60 51.36-10.60L51.36-10.60L51.36-10.60Q51.36-7.60 52.68-6L52.68-6L52.68-6Q54.00-4.40 56.36-4.40L56.36-4.40L56.36-4.40Q58.72-4.40 60.08-6.08L60.08-6.08L60.08-6.08Q61.44-7.76 61.68-9.44L61.68-9.44L61.92-11.12L61.92-11.12Q62.24-13.92 62.24-20.96L62.24-20.96L62.24-20.96Q62.24-28 61.80-29.88L61.80-29.88L61.80-29.88Q61.36-31.76 61.36-32.24L61.36-32.24L61.36-32.24Q61.36-34.24 64.56-35.40L64.56-35.40L64.56-35.40Q67.76-36.56 70.32-36.56L70.32-36.56L70.32-36.56Q71.52-36.56 71.52-35.60" fill="#51cacc" stroke="none" stroke-width="none" transform="translate(-276.1200256347656,21.925308706110176)" style="fill: rgb(81, 202, 204);"></path></g><g class="path" style="transform: matrix(0.01, 0, 0, 0.01, 0, 0); transform-origin: -188.56px 4.44531px; animation: 1s linear 0.0754545s 1 normal forwards running bounce-in-62be9955-8e69-4d99-acc1-3c3c9b03376f;"><path d="M100.72-9.20L100.72-9.20L100.72-9.20Q100.72-4.64 97.08-1.64L97.08-1.64L97.08-1.64Q93.44 1.36 88.40 1.36L88.40 1.36L88.40 1.36Q81.04 1.36 77.60-3.08L77.60-3.08L77.60-3.08Q74.16-7.52 74.16-15.12L74.16-15.12L74.16-15.12Q74.16-23.20 77.76-29.44L77.76-29.44L77.76-29.44Q79.52-32.64 82.80-34.48L82.80-34.48L82.80-34.48Q86.08-36.32 90.48-36.32L90.48-36.32L90.48-36.32Q97.12-36.32 99.84-31.84L99.84-31.84L99.84-31.84Q100.96-30 100.96-27.52L100.96-27.52L100.96-27.52Q100.96-23.68 97.76-21.76L97.76-21.76L97.76-21.76Q96.48-21.04 95.40-21.04L95.40-21.04L95.40-21.04Q94.32-21.04 93.64-21.16L93.64-21.16L93.64-21.16Q92.96-21.28 91.84-22.24L91.84-22.24L91.84-22.24Q90.72-23.20 90.72-24.88L90.72-24.88L90.72-24.88Q90.80-25.76 92.08-26.32L92.08-26.32L92.08-26.32Q93.28-27.04 93.28-28.88L93.28-28.88L93.28-28.88Q93.28-32 89.44-32L89.44-32L89.44-32Q88.48-32 87.16-31.16L87.16-31.16L87.16-31.16Q85.84-30.32 84.96-29L84.96-29L84.96-29Q84.08-27.68 83.32-24.84L83.32-24.84L83.32-24.84Q82.56-22 82.56-19.40L82.56-19.40L82.56-19.40Q82.56-16.80 82.76-15.48L82.76-15.48L82.76-15.48Q82.96-14.16 83.64-11.88L83.64-11.88L83.64-11.88Q84.32-9.60 86.20-8.16L86.20-8.16L86.20-8.16Q88.08-6.72 90.88-6.72L90.88-6.72L90.88-6.72Q94.24-6.72 96.80-9.52L96.80-9.52L96.80-9.52Q97.84-10.64 98.48-12.24L98.48-12.24L98.48-12.24Q98.80-12.88 99.28-12.88L99.28-12.88L99.28-12.88Q100.00-12.88 100.36-11.56L100.36-11.56L100.36-11.56Q100.72-10.24 100.72-9.20" fill="#51cacc" stroke="none" stroke-width="none" transform="translate(-276.1200256347656,21.925308706110176)" style="fill: rgb(81, 202, 204);"></path></g><g class="path" style="transform: matrix(0.01, 0, 0, 0.01, 0, 0); transform-origin: -158.16px 4.44531px; animation: 1s linear 0.113182s 1 normal forwards running bounce-in-62be9955-8e69-4d99-acc1-3c3c9b03376f;"><path d="M131.12-9.20L131.12-9.20L131.12-9.20Q131.12-4.64 127.48-1.64L127.48-1.64L127.48-1.64Q123.84 1.36 118.80 1.36L118.80 1.36L118.80 1.36Q111.44 1.36 108.00-3.08L108.00-3.08L108.00-3.08Q104.56-7.52 104.56-15.12L104.56-15.12L104.56-15.12Q104.56-23.20 108.16-29.44L108.16-29.44L108.16-29.44Q109.92-32.64 113.20-34.48L113.20-34.48L113.20-34.48Q116.48-36.32 120.88-36.32L120.88-36.32L120.88-36.32Q127.52-36.32 130.24-31.84L130.24-31.84L130.24-31.84Q131.36-30 131.36-27.52L131.36-27.52L131.36-27.52Q131.36-23.68 128.16-21.76L128.16-21.76L128.16-21.76Q126.88-21.04 125.80-21.04L125.80-21.04L125.80-21.04Q124.72-21.04 124.04-21.16L124.04-21.16L124.04-21.16Q123.36-21.28 122.24-22.24L122.24-22.24L122.24-22.24Q121.12-23.20 121.12-24.88L121.12-24.88L121.12-24.88Q121.20-25.76 122.48-26.32L122.48-26.32L122.48-26.32Q123.68-27.04 123.68-28.88L123.68-28.88L123.68-28.88Q123.68-32 119.84-32L119.84-32L119.84-32Q118.88-32 117.56-31.16L117.56-31.16L117.56-31.16Q116.24-30.32 115.36-29L115.36-29L115.36-29Q114.48-27.68 113.72-24.84L113.72-24.84L113.72-24.84Q112.96-22 112.96-19.40L112.96-19.40L112.96-19.40Q112.96-16.80 113.16-15.48L113.16-15.48L113.16-15.48Q113.36-14.16 114.04-11.88L114.04-11.88L114.04-11.88Q114.72-9.60 116.60-8.16L116.60-8.16L116.60-8.16Q118.48-6.72 121.28-6.72L121.28-6.72L121.28-6.72Q124.64-6.72 127.20-9.52L127.20-9.52L127.20-9.52Q128.24-10.64 128.88-12.24L128.88-12.24L128.88-12.24Q129.20-12.88 129.68-12.88L129.68-12.88L129.68-12.88Q130.40-12.88 130.76-11.56L130.76-11.56L130.76-11.56Q131.12-10.24 131.12-9.20" fill="#51cacc" stroke="none" stroke-width="none" transform="translate(-276.1200256347656,21.925308706110176)" style="fill: rgb(81, 202, 204);"></path></g><g class="path" style="transform: matrix(0.01, 0, 0, 0.01, 0, 0); transform-origin: -128.24px 4.52531px; animation: 1s linear 0.150909s 1 normal forwards running bounce-in-62be9955-8e69-4d99-acc1-3c3c9b03376f;"><path d="M142.96-20.32L142.96-20.32L143.04-18.32L143.04-18.32Q143.04-17.84 143.68-17.84L143.68-17.84L143.68-17.84Q146.24-18.08 148.16-19.16L148.16-19.16L148.16-19.16Q150.08-20.24 151.04-21.60L151.04-21.60L151.04-21.60Q152.96-24.56 153.12-26.72L153.12-26.72L153.20-27.68L153.20-27.68Q153.20-32 149.76-32L149.76-32L149.76-32Q147.20-32 145.60-29.76L145.60-29.76L145.60-29.76Q142.96-26.24 142.96-20.32zM160.40-9.68L160.40-9.68L160.40-9.68Q160.40-6.64 159.16-4.36L159.16-4.36L159.16-4.36Q157.92-2.08 156.36-1L156.36-1L156.36-1Q154.80 0.08 152.72 0.72L152.72 0.72L152.72 0.72Q150.08 1.52 147.68 1.52L147.68 1.52L147.68 1.52Q140.96 1.52 137.76-3.52L137.76-3.52L137.76-3.52Q134.56-8.56 134.56-16.36L134.56-16.36L134.56-16.36Q134.56-24.16 138.52-30.24L138.52-30.24L138.52-30.24Q142.48-36.32 150.40-36.32L150.40-36.32L150.40-36.32Q157.60-36.32 160.16-31.28L160.16-31.28L160.16-31.28Q161.20-29.36 161.20-27.64L161.20-27.64L161.20-27.64Q161.20-25.92 161.04-24.92L161.04-24.92L161.04-24.92Q160.88-23.92 159.92-21.92L159.92-21.92L159.92-21.92Q158.96-19.92 157.36-18.32L157.36-18.32L157.36-18.32Q155.76-16.72 152.32-15.28L152.32-15.28L152.32-15.28Q148.88-13.84 144.24-13.36L144.24-13.36L144.24-13.36Q143.60-13.36 143.60-12.80L143.60-12.80L143.60-12.80Q143.60-12.08 144.12-10.68L144.12-10.68L144.12-10.68Q144.64-9.28 145.28-8.32L145.28-8.32L145.28-8.32Q147.04-6.08 150.48-6.08L150.48-6.08L150.48-6.08Q153.92-6.08 156.32-8.32L156.32-8.32L156.32-8.32Q157.60-9.52 158.40-11.28L158.40-11.28L158.40-11.28Q158.72-11.92 159.24-11.92L159.24-11.92L159.24-11.92Q159.76-11.92 160.08-11.04L160.08-11.04L160.08-11.04Q160.40-10.16 160.40-9.68" fill="#51cacc" stroke="none" stroke-width="none" transform="translate(-276.1200256347656,21.925308706110176)" style="fill: rgb(81, 202, 204);"></path></g><g class="path" style="transform: matrix(0.01, 0, 0, 0.01, 0, 0); transform-origin: -99.96px 4.64531px; animation: 1s linear 0.188636s 1 normal forwards running bounce-in-62be9955-8e69-4d99-acc1-3c3c9b03376f;"><path d="M189.12-10.96L189.12-10.96L189.12-10.96Q189.12-7.52 187.80-4.96L187.80-4.96L187.80-4.96Q186.48-2.40 184.80-1.20L184.80-1.20L184.80-1.20Q183.12 0 180.80 0.72L180.80 0.72L180.80 0.72Q177.76 1.68 175.28 1.68L175.28 1.68L175.28 1.68Q170.08 1.68 166.64-0.36L166.64-0.36L166.64-0.36Q163.20-2.40 163.20-6.88L163.20-6.88L163.20-6.88Q163.20-9.52 164.64-11.20L164.64-11.20L164.64-11.20Q166.88-13.68 170-13.68L170-13.68L170-13.68Q170.96-13.68 170.96-12.80L170.96-12.80L170.96-12.80Q170.96-12.72 170.60-11.56L170.60-11.56L170.60-11.56Q170.24-10.40 170.24-8.64L170.24-8.64L170.24-8.64Q170.24-6.88 171.64-5.52L171.64-5.52L171.64-5.52Q173.04-4.16 175.04-4.16L175.04-4.16L175.04-4.16Q177.04-4.16 178.24-4.84L178.24-4.84L178.24-4.84Q179.44-5.52 179.92-6.56L179.92-6.56L179.92-6.56Q180.64-8 180.64-9.28L180.64-9.28L180.64-9.28Q180.64-11.60 178.32-13.28L178.32-13.28L178.32-13.28Q176-14.96 173.20-15.92L173.20-15.92L173.20-15.92Q170.40-16.88 168.08-19.12L168.08-19.12L168.08-19.12Q165.76-21.36 165.76-24.72L165.76-24.72L165.76-24.72Q165.76-30.48 169.40-33.36L169.40-33.36L169.40-33.36Q173.04-36.24 179.28-36.24L179.28-36.24L179.28-36.24Q182-36.24 185-35.48L185-35.48L185-35.48Q188-34.72 188-32.92L188-32.92L188-32.92Q188-31.12 187.40-29.60L187.40-29.60L187.40-29.60Q186.80-28.08 185.92-28.08L185.92-28.08L185.92-28.08Q185.44-28.08 185.28-28.44L185.28-28.44L185.28-28.44Q185.12-28.80 184.72-29.28L184.72-29.28L184.72-29.28Q184.32-29.76 182.80-30.52L182.80-30.52L182.80-30.52Q181.28-31.28 180.20-31.28L180.20-31.28L180.20-31.28Q179.12-31.28 178.76-31.24L178.76-31.24L178.76-31.24Q178.40-31.20 177.52-31L177.52-31L177.52-31Q176.64-30.80 175.92-30.40L175.92-30.40L175.92-30.40Q174.08-29.36 174.08-27.36L174.08-27.36L174.08-27.36Q174.08-26.08 174.64-25.48L174.64-25.48L174.64-25.48Q175.20-24.88 175.52-24.56L175.52-24.56L175.52-24.56Q175.84-24.24 176.64-23.80L176.64-23.80L176.64-23.80Q177.44-23.36 177.76-23.20L177.76-23.20L177.76-23.20Q178.08-23.04 179.20-22.52L179.20-22.52L179.20-22.52Q180.32-22 180.64-21.84L180.64-21.84L180.64-21.84Q189.12-17.84 189.12-10.96" fill="#51cacc" stroke="none" stroke-width="none" transform="translate(-276.1200256347656,21.925308706110176)" style="fill: rgb(81, 202, 204);"></path></g><g class="path" style="transform: matrix(0.01, 0, 0, 0.01, 0, 0); transform-origin: -72.6px 4.64531px; animation: 1s linear 0.226364s 1 normal forwards running bounce-in-62be9955-8e69-4d99-acc1-3c3c9b03376f;"><path d="M216.48-10.96L216.48-10.96L216.48-10.96Q216.48-7.52 215.16-4.96L215.16-4.96L215.16-4.96Q213.84-2.40 212.16-1.20L212.16-1.20L212.16-1.20Q210.48 0 208.16 0.72L208.16 0.72L208.16 0.72Q205.12 1.68 202.64 1.68L202.64 1.68L202.64 1.68Q197.44 1.68 194.00-0.36L194.00-0.36L194.00-0.36Q190.56-2.40 190.56-6.88L190.56-6.88L190.56-6.88Q190.56-9.52 192.00-11.20L192.00-11.20L192.00-11.20Q194.24-13.68 197.36-13.68L197.36-13.68L197.36-13.68Q198.32-13.68 198.32-12.80L198.32-12.80L198.32-12.80Q198.32-12.72 197.96-11.56L197.96-11.56L197.96-11.56Q197.60-10.40 197.60-8.64L197.60-8.64L197.60-8.64Q197.60-6.88 199.00-5.52L199.00-5.52L199.00-5.52Q200.40-4.16 202.40-4.16L202.40-4.16L202.40-4.16Q204.40-4.16 205.60-4.84L205.60-4.84L205.60-4.84Q206.80-5.52 207.28-6.56L207.28-6.56L207.28-6.56Q208.00-8 208.00-9.28L208.00-9.28L208.00-9.28Q208.00-11.60 205.68-13.28L205.68-13.28L205.68-13.28Q203.36-14.96 200.56-15.92L200.56-15.92L200.56-15.92Q197.76-16.88 195.44-19.12L195.44-19.12L195.44-19.12Q193.12-21.36 193.12-24.72L193.12-24.72L193.12-24.72Q193.12-30.48 196.76-33.36L196.76-33.36L196.76-33.36Q200.40-36.24 206.64-36.24L206.64-36.24L206.64-36.24Q209.36-36.24 212.36-35.48L212.36-35.48L212.36-35.48Q215.36-34.72 215.36-32.92L215.36-32.92L215.36-32.92Q215.36-31.12 214.76-29.60L214.76-29.60L214.76-29.60Q214.16-28.08 213.28-28.08L213.28-28.08L213.28-28.08Q212.80-28.08 212.64-28.44L212.64-28.44L212.64-28.44Q212.48-28.80 212.08-29.28L212.08-29.28L212.08-29.28Q211.68-29.76 210.16-30.52L210.16-30.52L210.16-30.52Q208.64-31.28 207.56-31.28L207.56-31.28L207.56-31.28Q206.48-31.28 206.12-31.24L206.12-31.24L206.12-31.24Q205.76-31.20 204.88-31L204.88-31L204.88-31Q204.00-30.80 203.28-30.40L203.28-30.40L203.28-30.40Q201.44-29.36 201.44-27.36L201.44-27.36L201.44-27.36Q201.44-26.08 202.00-25.48L202.00-25.48L202.00-25.48Q202.56-24.88 202.88-24.56L202.88-24.56L202.88-24.56Q203.20-24.24 204.00-23.80L204.00-23.80L204.00-23.80Q204.80-23.36 205.12-23.20L205.12-23.20L205.12-23.20Q205.44-23.04 206.56-22.52L206.56-22.52L206.56-22.52Q207.68-22 208.00-21.84L208.00-21.84L208.00-21.84Q216.48-17.84 216.48-10.96" fill="#51cacc" stroke="none" stroke-width="none" transform="translate(-276.1200256347656,21.925308706110176)" style="fill: rgb(81, 202, 204);"></path></g><g class="path" style="transform: matrix(0.01, 0, 0, 0.01, 0, 0); transform-origin: -49.72px 2.44531px; animation: 1s linear 0.264091s 1 normal forwards running bounce-in-62be9955-8e69-4d99-acc1-3c3c9b03376f;"><path d="M230.08-20L230.08-20L230.48-4L230.48-4Q230.48 1.04 229.16 4.92L229.16 4.92L229.16 4.92Q227.84 8.80 225.92 10.72L225.92 10.72L225.92 10.72Q222.00 14.80 219.04 15.36L219.04 15.36L217.68 15.68L217.68 15.68Q216.48 15.68 216.48 14.96L216.48 14.96L216.88 13.76L216.88 13.76Q222.72 5.68 222.72-25.92L222.72-25.92L222.72-25.92Q222.72-28.80 222.64-30.24L222.64-30.24L222.64-30.24Q220.96-30.24 219.28-30L219.28-30L219.20-30L219.20-30Q218.32-30 218.32-30.88L218.32-30.88L218.56-33.92L218.56-33.92Q218.64-34.64 219.68-34.64L219.68-34.64L222.56-34.64L222.56-40L222.72-47.60L222.72-47.60Q222.72-48.16 222.92-48.84L222.92-48.84L222.92-48.84Q223.12-49.52 224.64-50.92L224.64-50.92L224.64-50.92Q226.16-52.32 229.12-53.48L229.12-53.48L229.12-53.48Q232.08-54.64 234.20-54.64L234.20-54.64L234.20-54.64Q236.32-54.64 236.32-53.36L236.32-53.36L236.32-53.36Q236.32-52.88 235.60-52.56L235.60-52.56L235.60-52.56Q233.28-51.84 231.80-48.44L231.80-48.44L231.80-48.44Q230.32-45.04 230.32-36.88L230.32-36.88L230.32-34.64L230.32-34.64Q234.40-34.80 235.68-35.04L235.68-35.04L235.68-35.04Q236.24-35.04 236.24-34.08L236.24-34.08L236.24-34.08Q236.24-33.12 235.40-31.72L235.40-31.72L235.40-31.72Q234.56-30.32 233.32-30.28L233.32-30.28L233.32-30.28Q232.08-30.24 230.24-30.32L230.24-30.32L230.24-30.32Q230.08-24.24 230.08-20" fill="#51cacc" stroke="none" stroke-width="none" transform="translate(-276.1200256347656,21.925308706110176)" style="fill: rgb(81, 202, 204);"></path></g><g class="path" style="transform: matrix(0.01, 0, 0, 0.01, 0, 0); transform-origin: -24.52px 4.36531px; animation: 1s linear 0.301818s 1 normal forwards running bounce-in-62be9955-8e69-4d99-acc1-3c3c9b03376f;"><path d="M265.76-35.60L265.76-35.60L265.76-35.60Q264.32-26.96 264.32-13.60L264.32-13.60L264.32-13.60Q264.32-3.76 265.12-0.64L265.12-0.64L265.44 0.40L265.44 0.40Q265.44 1.44 263.68 1.44L263.68 1.44L263.68 1.44Q257.52 1.44 256.64-2L256.64-2L256.64-2Q256.56-2.40 256.28-2.40L256.28-2.40L256.28-2.40Q256-2.40 255.76-2.08L255.76-2.08L255.76-2.08Q253.28 1.20 248.08 1.20L248.08 1.20L248.08 1.20Q245.20 1.20 242.08-0.24L242.08-0.24L242.08-0.24Q240.16-1.12 238.96-3.32L238.96-3.32L238.96-3.32Q237.76-5.52 237.76-8.72L237.76-8.72L238.96-26.24L238.96-26.24Q238.96-31.76 237.84-34.08L237.84-34.08L237.84-34.08Q237.44-34.96 237.44-35.20L237.44-35.20L237.44-35.20Q237.44-35.68 237.84-35.84L237.84-35.84L237.84-35.84Q239.12-36.24 241.12-36.24L241.12-36.24L241.12-36.24Q248.88-36.24 248.88-29.84L248.88-29.84L248.88-29.84Q248.88-27.84 247.24-20.72L247.24-20.72L247.24-20.72Q245.60-13.60 245.60-10.60L245.60-10.60L245.60-10.60Q245.60-7.60 246.92-6L246.92-6L246.92-6Q248.24-4.40 250.60-4.40L250.60-4.40L250.60-4.40Q252.96-4.40 254.32-6.08L254.32-6.08L254.32-6.08Q255.68-7.76 255.92-9.44L255.92-9.44L256.16-11.12L256.16-11.12Q256.48-13.92 256.48-20.96L256.48-20.96L256.48-20.96Q256.48-28 256.04-29.88L256.04-29.88L256.04-29.88Q255.60-31.76 255.60-32.24L255.60-32.24L255.60-32.24Q255.60-34.24 258.80-35.40L258.80-35.40L258.80-35.40Q262-36.56 264.56-36.56L264.56-36.56L264.56-36.56Q265.76-36.56 265.76-35.60" fill="#51cacc" stroke="none" stroke-width="none" transform="translate(-276.1200256347656,21.925308706110176)" style="fill: rgb(81, 202, 204);"></path></g><g class="path" style="transform: matrix(0.01, 0, 0, 0.01, 0, 0); transform-origin: -1.40002px -4.95469px; animation: 1s linear 0.339545s 1 normal forwards running bounce-in-62be9955-8e69-4d99-acc1-3c3c9b03376f;"><path d="M280.40-45.76L280.40-45.76L279.92-16.40L279.92-16.40Q279.92-2.64 280.80 0.08L280.80 0.08L280.80 0.08Q281.04 0.56 281.04 1.04L281.04 1.04L281.04 1.04Q281.04 2 278.72 2L278.72 2L278.72 2Q276.40 2 273.56 0.84L273.56 0.84L273.56 0.84Q270.72-0.32 270.72-2.16L270.72-2.16L270.72-2.16Q272.32-13.36 272.32-32.08L272.32-32.08L272.00-44.32L272.00-44.32Q271.84-46.56 271.08-48.16L271.08-48.16L271.08-48.16Q270.32-49.76 269.60-50.24L269.60-50.24L268.96-50.64L268.96-50.64Q268.40-50.96 268.40-51.36L268.40-51.36L268.40-51.36Q268.40-52.48 271.88-54.12L271.88-54.12L271.88-54.12Q275.36-55.76 278.64-55.76L278.64-55.76L278.64-55.76Q279.92-55.76 280.08-54.88L280.08-54.88L280.08-54.88Q280.40-52.80 280.40-45.76" fill="#51cacc" stroke="none" stroke-width="none" transform="translate(-276.1200256347656,21.925308706110176)" style="fill: rgb(81, 202, 204);"></path></g><g class="path" style="transform: matrix(0.01, 0, 0, 0.01, 0, 0); transform-origin: 14.84px -4.95469px; animation: 1s linear 0.377273s 1 normal forwards running bounce-in-62be9955-8e69-4d99-acc1-3c3c9b03376f;"><path d="M296.64-45.76L296.64-45.76L296.16-16.40L296.16-16.40Q296.16-2.64 297.04 0.08L297.04 0.08L297.04 0.08Q297.28 0.56 297.28 1.04L297.28 1.04L297.28 1.04Q297.28 2 294.96 2L294.96 2L294.96 2Q292.64 2 289.80 0.84L289.80 0.84L289.80 0.84Q286.96-0.32 286.96-2.16L286.96-2.16L286.96-2.16Q288.56-13.36 288.56-32.08L288.56-32.08L288.24-44.32L288.24-44.32Q288.08-46.56 287.32-48.16L287.32-48.16L287.32-48.16Q286.56-49.76 285.84-50.24L285.84-50.24L285.20-50.64L285.20-50.64Q284.64-50.96 284.64-51.36L284.64-51.36L284.64-51.36Q284.64-52.48 288.12-54.12L288.12-54.12L288.12-54.12Q291.60-55.76 294.88-55.76L294.88-55.76L294.88-55.76Q296.16-55.76 296.32-54.88L296.32-54.88L296.32-54.88Q296.64-52.80 296.64-45.76" fill="#51cacc" stroke="none" stroke-width="none" transform="translate(-276.1200256347656,21.925308706110176)" style="fill: rgb(81, 202, 204);"></path></g><g class="path" style="transform: matrix(0.01, 0, 0, 0.01, 0, 0); transform-origin: 38.88px 15.1253px; animation: 1s linear 0.415s 1 normal forwards running bounce-in-62be9955-8e69-4d99-acc1-3c3c9b03376f;"><path d="M316.24 22.16L316.24 22.16L316.24 22.16Q316.24 23.12 315.28 23.12L315.28 23.12L315.20 23.12L315.20 23.12Q312.56 23.12 309.24 21.28L309.24 21.28L309.24 21.28Q305.92 19.44 305.92 17.04L305.92 17.04L305.92 17.04Q305.92 14.64 308.96 8.68L308.96 8.68L308.96 8.68Q312.00 2.72 312.00 0.72L312.00 0.72L312.00 0.72Q312.00-1.44 309.92-7.04L309.92-7.04L309.92-7.04Q307.28-14.32 305.72-18.88L305.72-18.88L305.72-18.88Q304.16-23.44 302.36-26.92L302.36-26.92L302.36-26.92Q300.56-30.40 299.76-31.04L299.76-31.04L298.96-31.60L298.96-31.60Q298.08-32.08 298.08-32.64L298.08-32.64L298.08-32.64Q298.08-33.76 301.56-34.92L301.56-34.92L301.56-34.92Q305.04-36.08 307.68-36.08L307.68-36.08L307.68-36.08Q308.88-36.08 309.68-34.16L309.68-34.16L309.68-34.16Q311.12-30.40 312.80-23.76L312.80-23.76L312.80-23.76Q316.88-10.16 317.92-10.16L317.92-10.16L317.92-10.16Q318.64-10.16 320.84-15.76L320.84-15.76L320.84-15.76Q323.04-21.36 323.04-24.80L323.04-24.80L323.04-24.80Q323.04-30.80 319.52-31.84L319.52-31.84L319.52-31.84Q318.72-32 318.72-32.64L318.72-32.64L318.72-32.64Q318.72-34.08 322.48-35.40L322.48-35.40L322.48-35.40Q326.24-36.72 329.28-36.72L329.28-36.72L329.28-36.72Q331.92-36.72 331.92-33.28L331.92-33.28L331.92-33.28Q331.92-30.64 330.80-27.12L330.80-27.12L330.80-27.12Q329.68-23.60 328.72-21.56L328.72-21.56L328.72-21.56Q327.76-19.52 323.96-12.12L323.96-12.12L323.96-12.12Q320.16-4.72 317.68 0.88L317.68 0.88L317.68 0.88Q314.96 7.60 314.96 14.56L314.96 14.56L314.96 14.56Q314.96 18.24 315.60 20.08L315.60 20.08L315.60 20.08Q316.24 21.92 316.24 22.16" fill="#51cacc" stroke="none" stroke-width="none" transform="translate(-276.1200256347656,21.925308706110176)" style="fill: rgb(81, 202, 204);"></path></g><g class="path" style="transform: matrix(0.01, 0, 0, 0.01, 0, 0); transform-origin: 89.64px -5.87469px; animation: 1s linear 0.452727s 1 normal forwards running bounce-in-62be9955-8e69-4d99-acc1-3c3c9b03376f;"><path d="M357.04-14.72L356.00-18.72L356.00-18.72Q355.52-20.48 353.44-30.16L353.44-30.16L353.44-30.16Q351.36-39.84 349.20-45.60L349.20-45.60L349.20-45.60Q347.04-51.36 344.08-53.28L344.08-53.28L344.08-53.28Q343.28-53.68 343.28-54.32L343.28-54.32L343.28-54.32Q343.28-55.84 347.60-56.80L347.60-56.80L347.60-56.80Q351.92-57.76 354.28-57.76L354.28-57.76L354.28-57.76Q356.64-57.76 357.12-56.40L357.12-56.40L357.12-56.40Q358.56-53.44 360.80-43.12L360.80-43.12L360.80-43.12Q365.36-21.52 367.52-15.92L367.52-15.92L367.52-15.92Q368.00-14.80 368.72-14.80L368.72-14.80L368.72-14.80Q369.44-14.80 370.20-16.20L370.20-16.20L370.20-16.20Q370.96-17.60 372.28-20.20L372.28-20.20L372.28-20.20Q373.60-22.80 375.84-29.44L375.84-29.44L375.84-29.44Q378.08-36.08 378.08-40.96L378.08-40.96L378.08-40.96Q378.08-48.48 373.12-51.60L373.12-51.60L373.12-51.60Q372.72-52.08 372.72-52.64L372.72-52.64L372.72-52.64Q372.72-54.32 377.36-56L377.36-56L377.36-56Q382.00-57.68 385.76-57.68L385.76-57.68L385.76-57.68Q388.24-57.68 388.24-55.36L388.24-55.36L388.24-55.36Q388.24-48.16 385.36-38.68L385.36-38.68L385.36-38.68Q382.48-29.20 378.48-21.08L378.48-21.08L378.48-21.08Q374.48-12.96 371.04-7.04L371.04-7.04L371.04-7.04Q365.60 2.16 364.16 2.16L364.16 2.16L364.16 2.16Q363.44 2.16 362.80 1.04L362.80 1.04L362.80 1.04Q360.40-2.40 357.04-14.72L357.04-14.72" fill="#51cacc" stroke="none" stroke-width="none" transform="translate(-276.1200256347656,21.925308706110176)" style="fill: rgb(81, 202, 204);"></path></g><g class="path" style="transform: matrix(0.01, 0, 0, 0.01, 0, 0); transform-origin: 122.48px 4.52531px; animation: 1s linear 0.490455s 1 normal forwards running bounce-in-62be9955-8e69-4d99-acc1-3c3c9b03376f;"><path d="M393.68-20.32L393.68-20.32L393.76-18.32L393.76-18.32Q393.76-17.84 394.40-17.84L394.40-17.84L394.40-17.84Q396.96-18.08 398.88-19.16L398.88-19.16L398.88-19.16Q400.80-20.24 401.76-21.60L401.76-21.60L401.76-21.60Q403.68-24.56 403.84-26.72L403.84-26.72L403.92-27.68L403.92-27.68Q403.92-32 400.48-32L400.48-32L400.48-32Q397.92-32 396.32-29.76L396.32-29.76L396.32-29.76Q393.68-26.24 393.68-20.32zM411.12-9.68L411.12-9.68L411.12-9.68Q411.12-6.64 409.88-4.36L409.88-4.36L409.88-4.36Q408.64-2.08 407.08-1L407.08-1L407.08-1Q405.52 0.08 403.44 0.72L403.44 0.72L403.44 0.72Q400.80 1.52 398.40 1.52L398.40 1.52L398.40 1.52Q391.68 1.52 388.48-3.52L388.48-3.52L388.48-3.52Q385.28-8.56 385.28-16.36L385.28-16.36L385.28-16.36Q385.28-24.16 389.24-30.24L389.24-30.24L389.24-30.24Q393.20-36.32 401.12-36.32L401.12-36.32L401.12-36.32Q408.32-36.32 410.88-31.28L410.88-31.28L410.88-31.28Q411.92-29.36 411.92-27.64L411.92-27.64L411.92-27.64Q411.92-25.92 411.76-24.92L411.76-24.92L411.76-24.92Q411.60-23.92 410.64-21.92L410.64-21.92L410.64-21.92Q409.68-19.92 408.08-18.32L408.08-18.32L408.08-18.32Q406.48-16.72 403.04-15.28L403.04-15.28L403.04-15.28Q399.60-13.84 394.96-13.36L394.96-13.36L394.96-13.36Q394.32-13.36 394.32-12.80L394.32-12.80L394.32-12.80Q394.32-12.08 394.84-10.68L394.84-10.68L394.84-10.68Q395.36-9.28 396.00-8.32L396.00-8.32L396.00-8.32Q397.76-6.08 401.20-6.08L401.20-6.08L401.20-6.08Q404.64-6.08 407.04-8.32L407.04-8.32L407.04-8.32Q408.32-9.52 409.12-11.28L409.12-11.28L409.12-11.28Q409.44-11.92 409.96-11.92L409.96-11.92L409.96-11.92Q410.48-11.92 410.80-11.04L410.80-11.04L410.80-11.04Q411.12-10.16 411.12-9.68" fill="#51cacc" stroke="none" stroke-width="none" transform="translate(-276.1200256347656,21.925308706110176)" style="fill: rgb(81, 202, 204);"></path></g><g class="path" style="transform: matrix(0.01, 0, 0, 0.01, 0, 0); transform-origin: 151px 4.36531px; animation: 1s linear 0.528182s 1 normal forwards running bounce-in-62be9955-8e69-4d99-acc1-3c3c9b03376f;"><path d="M439.52-27.52L439.12-21.44L439.44-18.64L439.44-18.64Q439.44-17.12 436.56-17.12L436.56-17.12L436.56-17.12Q430.72-17.12 430.72-21.52L430.72-21.52L430.72-21.52Q430.72-22.56 431.28-24.40L431.28-24.40L431.28-24.40Q431.84-26.24 431.84-27.60L431.84-27.60L431.84-27.60Q431.84-28.96 431.04-29.96L431.04-29.96L431.04-29.96Q430.24-30.96 428.72-30.96L428.72-30.96L428.72-30.96Q427.20-30.96 426.12-29.88L426.12-29.88L426.12-29.88Q425.04-28.80 424.80-27.68L424.80-27.68L424.48-26.56L424.48-26.56Q424.00-24.08 424.00-18.28L424.00-18.28L424.00-18.28Q424.00-12.48 424.16-9.16L424.16-9.16L424.16-9.16Q424.32-5.84 424.48-4.60L424.48-4.60L424.48-4.60Q424.64-3.36 424.64-3.12L424.64-3.12L424.64-3.12Q424.64-1.12 422.16 0.12L422.16 0.12L422.16 0.12Q419.68 1.36 417.20 1.36L417.20 1.36L417.20 1.36Q414.72 1.36 414.72 0.32L414.72 0.32L415.12-2.16L415.12-2.16Q416.24-9.12 416.24-20.32L416.24-20.32L416.24-20.32Q416.24-31.52 415.44-35.52L415.44-35.52L415.44-35.52Q415.44-36.48 417.12-36.48L417.12-36.48L417.12-36.48Q421.44-36.48 422.88-33.52L422.88-33.52L422.88-33.52Q422.96-33.20 423.16-33.20L423.16-33.20L423.16-33.20Q423.36-33.20 424.24-33.92L424.24-33.92L424.24-33.92Q426.88-36.08 430.48-36.08L430.48-36.08L430.48-36.08Q432.72-36.08 434.96-35.20L434.96-35.20L434.96-35.20Q439.52-33.36 439.52-27.52L439.52-27.52" fill="#51cacc" stroke="none" stroke-width="none" transform="translate(-276.1200256347656,21.925308706110176)" style="fill: rgb(81, 202, 204);"></path></g><g class="path" style="transform: matrix(0.01, 0, 0, 0.01, 0, 0); transform-origin: 173.8px -24.1947px; animation: 1s linear 0.565909s 1 normal forwards running bounce-in-62be9955-8e69-4d99-acc1-3c3c9b03376f;"><path d="M451.36-42.80L451.36-42.80L449.44-42.88L449.44-42.88Q447.28-42.88 446.64-41.84L446.64-41.84L446.64-41.84Q446.48-41.60 446.24-41.60L446.24-41.60L446.24-41.60Q445.20-41.60 445.20-45.16L445.20-45.16L445.20-45.16Q445.20-48.72 446.28-49.68L446.28-49.68L446.28-49.68Q447.36-50.64 450.04-50.64L450.04-50.64L450.04-50.64Q452.72-50.64 453.68-49.72L453.68-49.72L453.68-49.72Q454.64-48.80 454.64-46.64L454.64-46.64L454.64-46.64Q454.64-44.48 453.92-43.64L453.92-43.64L453.92-43.64Q453.20-42.80 451.36-42.80" fill="#51cacc" stroke="none" stroke-width="none" transform="translate(-276.1200256347656,21.925308706110176)" style="fill: rgb(81, 202, 204);"></path></g><g class="path" style="transform: matrix(0.01, 0, 0, 0.01, 0, 0); transform-origin: 172.76px 4.76531px; animation: 1s linear 0.603636s 1 normal forwards running bounce-in-62be9955-8e69-4d99-acc1-3c3c9b03376f;"><path d="M444.96-2.40L444.96-2.40L445.84-21.04L445.84-21.04Q445.84-27.68 444.32-30.08L444.32-30.08L444.32-30.08Q443.84-30.88 443.20-31.28L443.20-31.28L443.20-31.28Q442.72-31.44 442.72-31.92L442.72-31.92L442.72-31.92Q442.72-33.36 446.80-34.72L446.80-34.72L446.80-34.72Q450.88-36.08 452.76-36.08L452.76-36.08L452.76-36.08Q454.64-36.08 454.72-35.12L454.72-35.12L454.72-35.12Q454.72-33.52 454.28-26.04L454.28-26.04L454.28-26.04Q453.84-18.56 453.84-10.32L453.84-10.32L453.84-10.32Q453.84-2.08 454.80-0.08L454.80-0.08L454.80-0.08Q455.04 0.32 455.04 0.72L455.04 0.72L455.04 0.72Q455.04 1.76 452 1.76L452 1.76L452 1.76Q448.96 1.76 445.76 0.16L445.76 0.16L445.76 0.16Q444.96-0.24 444.96-2.40" fill="#51cacc" stroke="none" stroke-width="none" transform="translate(-276.1200256347656,21.925308706110176)" style="fill: rgb(81, 202, 204);"></path></g><g class="path" style="transform: matrix(0.01, 0, 0, 0.01, 0, 0); transform-origin: 190.52px 2.44531px; animation: 1s linear 0.641364s 1 normal forwards running bounce-in-62be9955-8e69-4d99-acc1-3c3c9b03376f;"><path d="M470.32-20L470.32-20L470.72-4L470.72-4Q470.72 1.04 469.40 4.92L469.40 4.92L469.40 4.92Q468.08 8.80 466.16 10.72L466.16 10.72L466.16 10.72Q462.24 14.80 459.28 15.36L459.28 15.36L457.92 15.68L457.92 15.68Q456.72 15.68 456.72 14.96L456.72 14.96L457.12 13.76L457.12 13.76Q462.96 5.68 462.96-25.92L462.96-25.92L462.96-25.92Q462.96-28.80 462.88-30.24L462.88-30.24L462.88-30.24Q461.20-30.24 459.52-30L459.52-30L459.44-30L459.44-30Q458.56-30 458.56-30.88L458.56-30.88L458.80-33.92L458.80-33.92Q458.88-34.64 459.92-34.64L459.92-34.64L462.80-34.64L462.80-40L462.96-47.60L462.96-47.60Q462.96-48.16 463.16-48.84L463.16-48.84L463.16-48.84Q463.36-49.52 464.88-50.92L464.88-50.92L464.88-50.92Q466.40-52.32 469.36-53.48L469.36-53.48L469.36-53.48Q472.32-54.64 474.44-54.64L474.44-54.64L474.44-54.64Q476.56-54.64 476.56-53.36L476.56-53.36L476.56-53.36Q476.56-52.88 475.84-52.56L475.84-52.56L475.84-52.56Q473.52-51.84 472.04-48.44L472.04-48.44L472.04-48.44Q470.56-45.04 470.56-36.88L470.56-36.88L470.56-34.64L470.56-34.64Q474.64-34.80 475.92-35.04L475.92-35.04L475.92-35.04Q476.48-35.04 476.48-34.08L476.48-34.08L476.48-34.08Q476.48-33.12 475.64-31.72L475.64-31.72L475.64-31.72Q474.80-30.32 473.56-30.28L473.56-30.28L473.56-30.28Q472.32-30.24 470.48-30.32L470.48-30.32L470.48-30.32Q470.32-24.24 470.32-20" fill="#51cacc" stroke="none" stroke-width="none" transform="translate(-276.1200256347656,21.925308706110176)" style="fill: rgb(81, 202, 204);"></path></g><g class="path" style="transform: matrix(0.01, 0, 0, 0.01, 0, 0); transform-origin: 208.36px -24.1947px; animation: 1s linear 0.679091s 1 normal forwards running bounce-in-62be9955-8e69-4d99-acc1-3c3c9b03376f;"><path d="M485.92-42.80L485.92-42.80L484.00-42.88L484.00-42.88Q481.84-42.88 481.20-41.84L481.20-41.84L481.20-41.84Q481.04-41.60 480.80-41.60L480.80-41.60L480.80-41.60Q479.76-41.60 479.76-45.16L479.76-45.16L479.76-45.16Q479.76-48.72 480.84-49.68L480.84-49.68L480.84-49.68Q481.92-50.64 484.60-50.64L484.60-50.64L484.60-50.64Q487.28-50.64 488.24-49.72L488.24-49.72L488.24-49.72Q489.20-48.80 489.20-46.64L489.20-46.64L489.20-46.64Q489.20-44.48 488.48-43.64L488.48-43.64L488.48-43.64Q487.76-42.80 485.92-42.80" fill="#51cacc" stroke="none" stroke-width="none" transform="translate(-276.1200256347656,21.925308706110176)" style="fill: rgb(81, 202, 204);"></path></g><g class="path" style="transform: matrix(0.01, 0, 0, 0.01, 0, 0); transform-origin: 207.32px 4.76531px; animation: 1s linear 0.716818s 1 normal forwards running bounce-in-62be9955-8e69-4d99-acc1-3c3c9b03376f;"><path d="M479.52-2.40L479.52-2.40L480.40-21.04L480.40-21.04Q480.40-27.68 478.88-30.08L478.88-30.08L478.88-30.08Q478.40-30.88 477.76-31.28L477.76-31.28L477.76-31.28Q477.28-31.44 477.28-31.92L477.28-31.92L477.28-31.92Q477.28-33.36 481.36-34.72L481.36-34.72L481.36-34.72Q485.44-36.08 487.32-36.08L487.32-36.08L487.32-36.08Q489.20-36.08 489.28-35.12L489.28-35.12L489.28-35.12Q489.28-33.52 488.84-26.04L488.84-26.04L488.84-26.04Q488.40-18.56 488.40-10.32L488.40-10.32L488.40-10.32Q488.40-2.08 489.36-0.08L489.36-0.08L489.36-0.08Q489.60 0.32 489.60 0.72L489.60 0.72L489.60 0.72Q489.60 1.76 486.56 1.76L486.56 1.76L486.56 1.76Q483.52 1.76 480.32 0.16L480.32 0.16L480.32 0.16Q479.52-0.24 479.52-2.40" fill="#51cacc" stroke="none" stroke-width="none" transform="translate(-276.1200256347656,21.925308706110176)" style="fill: rgb(81, 202, 204);"></path></g><g class="path" style="transform: matrix(0.01, 0, 0, 0.01, 0, 0); transform-origin: 230.88px 4.52531px; animation: 1s linear 0.754545s 1 normal forwards running bounce-in-62be9955-8e69-4d99-acc1-3c3c9b03376f;"><path d="M502.08-20.32L502.08-20.32L502.16-18.32L502.16-18.32Q502.16-17.84 502.80-17.84L502.80-17.84L502.80-17.84Q505.36-18.08 507.28-19.16L507.28-19.16L507.28-19.16Q509.20-20.24 510.16-21.60L510.16-21.60L510.16-21.60Q512.08-24.56 512.24-26.72L512.24-26.72L512.32-27.68L512.32-27.68Q512.32-32 508.88-32L508.88-32L508.88-32Q506.32-32 504.72-29.76L504.72-29.76L504.72-29.76Q502.08-26.24 502.08-20.32zM519.52-9.68L519.52-9.68L519.52-9.68Q519.52-6.64 518.28-4.36L518.28-4.36L518.28-4.36Q517.04-2.08 515.48-1L515.48-1L515.48-1Q513.92 0.08 511.84 0.72L511.84 0.72L511.84 0.72Q509.20 1.52 506.80 1.52L506.80 1.52L506.80 1.52Q500.08 1.52 496.88-3.52L496.88-3.52L496.88-3.52Q493.68-8.56 493.68-16.36L493.68-16.36L493.68-16.36Q493.68-24.16 497.64-30.24L497.64-30.24L497.64-30.24Q501.60-36.32 509.52-36.32L509.52-36.32L509.52-36.32Q516.72-36.32 519.28-31.28L519.28-31.28L519.28-31.28Q520.32-29.36 520.32-27.64L520.32-27.64L520.32-27.64Q520.32-25.92 520.16-24.92L520.16-24.92L520.16-24.92Q520-23.92 519.04-21.92L519.04-21.92L519.04-21.92Q518.08-19.92 516.48-18.32L516.48-18.32L516.48-18.32Q514.88-16.72 511.44-15.28L511.44-15.28L511.44-15.28Q508.00-13.84 503.36-13.36L503.36-13.36L503.36-13.36Q502.72-13.36 502.72-12.80L502.72-12.80L502.72-12.80Q502.72-12.08 503.24-10.68L503.24-10.68L503.24-10.68Q503.76-9.28 504.40-8.32L504.40-8.32L504.40-8.32Q506.16-6.08 509.60-6.08L509.60-6.08L509.60-6.08Q513.04-6.08 515.44-8.32L515.44-8.32L515.44-8.32Q516.72-9.52 517.52-11.28L517.52-11.28L517.52-11.28Q517.84-11.92 518.36-11.92L518.36-11.92L518.36-11.92Q518.88-11.92 519.20-11.04L519.20-11.04L519.20-11.04Q519.52-10.16 519.52-9.68" fill="#51cacc" stroke="none" stroke-width="none" transform="translate(-276.1200256347656,21.925308706110176)" style="fill: rgb(81, 202, 204);"></path></g><g class="path" style="transform: matrix(0.01, 0, 0, 0.01, 0, 0); transform-origin: 262.28px -5.39469px; animation: 1s linear 0.792273s 1 normal forwards running bounce-in-62be9955-8e69-4d99-acc1-3c3c9b03376f;"><path d="M539.92-35.92L539.92-35.92L539.92-35.92Q541.36-35.92 542.52-35.56L542.52-35.56L542.52-35.56Q543.68-35.20 543.76-35.20L543.76-35.20L544.24-35.60L543.92-44.32L543.92-44.32Q543.76-46.56 542.96-48.16L542.96-48.16L542.96-48.16Q542.16-49.76 541.52-50.24L541.52-50.24L540.80-50.64L540.80-50.64Q540.32-50.96 540.32-51.36L540.32-51.36L540.32-51.36Q540.32-52.56 544.04-54.16L544.04-54.16L544.04-54.16Q547.76-55.76 549.84-55.76L549.84-55.76L549.84-55.76Q551.92-55.76 552.08-54.88L552.08-54.88L552.08-54.88Q552.48-52.16 552.48-44.52L552.48-44.52L552.48-44.52Q552.48-36.88 552.12-29.52L552.12-29.52L552.12-29.52Q551.76-22.16 551.76-12.84L551.76-12.84L551.76-12.84Q551.76-3.52 552.96-1.12L552.96-1.12L552.96-1.12Q553.28-0.56 553.28-0.08L553.28-0.08L553.28-0.08Q553.28 1.12 549.84 1.12L549.84 1.12L549.84 1.12Q543.28 1.12 543.28-2L543.28-2L543.28-2Q543.12-3.28 543.12-5.96L543.12-5.96L543.12-5.96Q543.12-8.64 543.64-15.96L543.64-15.96L543.64-15.96Q544.16-23.28 544.16-27.24L544.16-27.24L544.16-27.24Q544.16-31.20 540.20-31.20L540.20-31.20L540.20-31.20Q536.24-31.20 534.16-26.56L534.16-26.56L534.16-26.56Q532.08-21.92 532.08-17.28L532.08-17.28L532.08-17.28Q532.08-7.44 537.04-7.44L537.04-7.44L537.04-7.44Q537.76-7.44 538.44-7.72L538.44-7.72L538.44-7.72Q539.12-8 539.28-8L539.28-8L539.28-8Q539.92-8 540.28-7.20L540.28-7.20L540.28-7.20Q540.64-6.40 540.64-5.60L540.64-5.60L540.64-5.60Q540.64-2.88 538.48-1L538.48-1L538.48-1Q536.32 0.88 533.20 0.88L533.20 0.88L533.20 0.88Q528.40 0.88 525.96-3.32L525.96-3.32L525.96-3.32Q523.52-7.52 523.52-13.76L523.52-13.76L523.52-13.76Q523.52-21.68 527.28-28.48L527.28-28.48L527.28-28.48Q529.20-31.84 532.48-33.88L532.48-33.88L532.48-33.88Q535.76-35.92 539.92-35.92" fill="#51cacc" stroke="none" stroke-width="none" transform="translate(-276.1200256347656,21.925308706110176)" style="fill: rgb(81, 202, 204);"></path></g></g>
</g>
</g>
<style id="bounce-in-62be9955-8e69-4d99-acc1-3c3c9b03376f" data-anikit="">@keyframes bounce-in-62be9955-8e69-4d99-acc1-3c3c9b03376f
{
  0% {
    animation-timing-function: cubic-bezier(0.0383,0.3388,0.0421,0.6652);
    transform: matrix(0.01,0,0,0.01,0,0);
    opacity: 1;
  }
  4.7% {
    animation-timing-function: cubic-bezier(0.3296,0.3336,0.5772,0.6672);
    transform: matrix(0.556,0,0,0.556,0,0);
    opacity: 1;
  }
  8.4% {
    animation-timing-function: cubic-bezier(0.0781,0.1617,0.0874,0.9301);
    transform: matrix(0.979,0,0,0.979,0,0);
    opacity: 1;
  }
  12.4% {
    animation-timing-function: cubic-bezier(0.8341,0.1496,0.8634,0.7673);
    transform: matrix(1.153,0,0,1.153,0,0);
    opacity: 1;
  }
  16.3% {
    animation-timing-function: cubic-bezier(0.3264,0.3332,0.5758,0.6695);
    transform: matrix(1.008,0,0,1.008,0,0);
    opacity: 1;
  }
  21.2% {
    animation-timing-function: cubic-bezier(0.0921,0.1883,0.3277,1);
    transform: matrix(0.704,0,0,0.704,0,0);
    opacity: 1;
  }
  24.5% {
    animation-timing-function: cubic-bezier(0.6905,0.0944,0.8759,0.7624);
    transform: matrix(0.626,0,0,0.626,0,0);
    opacity: 1;
  }
  27.7% {
    animation-timing-function: cubic-bezier(0.3688,0.332,0.624,0.6684);
    transform: matrix(0.704,0,0,0.704,0,0);
    opacity: 1;
  }
  32.6% {
    animation-timing-function: cubic-bezier(0.1368,0.2364,0.2451,0.9049);
    transform: matrix(0.958,0,0,0.958,0,0);
    opacity: 1;
  }
  37.4% {
    animation-timing-function: cubic-bezier(0.5936,0.0846,0.3495,1);
    transform: matrix(1.085,0,0,1.085,0,0);
    opacity: 1;
  }
  49.5% {
    animation-timing-function: cubic-bezier(0.5522,0.0981,0.3807,1);
    transform: matrix(0.802,0,0,0.802,0,0);
    opacity: 1;
  }
  62.4% {
    animation-timing-function: cubic-bezier(0.4497,0.1349,0.4911,1);
    transform: matrix(1.044,0,0,1.044,0,0);
    opacity: 1;
  }
  74.1% {
    animation-timing-function: cubic-bezier(0.429,0,0.5239,1);
    transform: matrix(0.914,0,0,0.914,0,0);
    opacity: 1;
  }
  87% {
    animation-timing-function: cubic-bezier(0.3501,0,0.6422,1);
    transform: matrix(1.013,0,0,1.013,0,0);
    opacity: 1;
  }
  95.8% {
    animation-timing-function: cubic-bezier(0.3653,0,0.6776,1);
    transform: matrix(0.992,0,0,0.992,0,0);
    opacity: 1;
  }
  100% {
    transform: matrix(1,0,0,1,0,0);
    opacity: 1;
  }
}</style></svg>